<svg xmlns="http://www.w3.org/2000/svg" version="1.1" xmlns:xlink="http://www.w3.org/1999/xlink" xmlns:svgjs="http://svgjs.dev/svgjs" width="1000" height="1125" viewBox="0 0 1000 1125"><g transform="matrix(1,0,0,1,0,0)"><svg viewBox="0 0 320 360" data-background-color="#333333" preserveAspectRatio="xMidYMid meet" height="1125" width="1000" xmlns="http://www.w3.org/2000/svg" xmlns:xlink="http://www.w3.org/1999/xlink"><g id="tight-bounds" transform="matrix(1,0,0,1,0,0)"><svg viewBox="0 0 320 360" height="360" width="320"><g><svg></svg></g><g><svg viewBox="0 0 320 360" height="360" width="320"><g><path xmlns="http://www.w3.org/2000/svg" d="M219.58 41.008c0.707 0 6.365 2.829 9.547 3.89-1.061 0.354-3.536-0.707-6.365-1.768 0.707 0 2.122 0.354 3.536 1.06-0.707-0.707-6.011-2.475-6.718-3.182M166.895 30.047c1.061-0.354 13.436 1.414 19.094 1.768 0.354-0.354-0.707-0.354-2.122-0.707 1.768-0.354 5.304 0.707 7.779 1.06-7.425 0.354-15.558-1.768-22.629-1.06-2.475 0-0.707-0.707-2.122-1.061M156.641 30.047c6.365 0 11.315 0 2.121 0.707-1.061-0.354-2.475-0.354-2.121-0.707M256.707 59.395c0.707 0 3.536 3.182 4.95 4.243-0.354 0.354-3.182-2.475-4.596-3.536 0.354 0.354 0 0-0.354-0.707M249.635 54.798c-2.829-2.475-3.889-2.475-4.243-3.889 2.475 1.414 4.243 2.829 4.243 3.889M204.022 32.522c0.354-0.354 1.061 0.354 2.829 0.707-2.122-0.354-1.768 0-1.061 0.707-2.475-0.354-3.182-0.707-2.475-1.414 1.414 0.707 1.768 0.354 0.707 0M103.602 36.765c0-0.354 1.414-1.061 2.475-1.414-1.061 0.707-0.707 1.061 1.061 0.353 0 0.354-2.122 1.061-3.536 1.768 0.707-0.354 1.414-1.414 0-0.707M211.094 28.986c-1.061 0.354-4.95-1.768-8.84-2.475-2.122-0.707 8.486 1.768 8.84 2.475M2.475 203.66c2.122 8.84 0.707 8.486 0 0M2.829 150.621c0.354-1.414 0.707-5.304 1.06-4.95-1.061 8.486-2.829 12.376-3.182 18.74 1.061-5.657-0.354 3.182-0.707 5.304 0.354 2.829 0.354-1.768 1.061-1.06 0.707 1.061-1.414 15.912-0.707 7.779-0.707 7.425 0 15.558 1.414 17.679-1.768 11.315 7.072 36.773 8.84 42.077 0.354 0.354 0-1.768 0.707-0.353 0.707 4.597 3.889 7.779 4.95 12.729 1.061 1.414 5.304 9.193 6.011 10.962 1.414 2.829 2.122 2.475 3.536 5.303 4.243 8.133 10.961 15.912 17.326 23.337 20.508 24.044 51.978 43.845 86.984 50.918 35.006 7.425 71.779 2.122 100.419-11.669 1.768-1.061 1.414-1.414 3.536-2.122 9.901-3.182 21.923-13.436 28.641-17.326 3.182-3.536 11.669-9.547 12.73-13.082 6.011-4.95 12.022-13.083 15.204-18.387 1.768-2.829 3.182-2.829 3.889-4.597-0.354 0 5.657-7.425 7.426-11.668-0.707 0-1.768 2.122-1.768 0 12.729-24.398 19.801-57.282 15.911-79.912 0.707 27.934-6.365 59.05-19.801 78.851-6.011 12.729-18.387 26.519-29.701 36.42-1.768 1.768-3.536 3.889-5.658 5.304-6.718 5.657-14.144 10.254-21.922 14.497-18.387 10.254-38.895 19.094-62.94 19.447 41.37-3.536 78.497-24.398 99.006-49.856-15.558 15.204-22.276 21.215-39.602 30.055-1.414 2.475-13.083 7.425-20.862 9.547 4.597-2.122 14.144-5.657 17.326-8.486-25.812 12.376-54.453 19.448-81.326 15.558 10.254 0 24.751 0.354 38.541-2.121 2.122-0.707 3.182-1.414 5.658-1.768 26.873-6.011 52.685-19.094 71.072-37.481-10.608 9.547-26.519 20.862-36.774 24.398 9.547-5.304 26.873-15.558 32.53-23.337-11.315 11.315-32.53 22.63-45.966 27.58-2.122 0.354 1.414-1.414-2.122 0-4.243 1.061-2.475 1.061-3.536 1.768-16.265 4.597-35.006 8.486-50.563 7.072-2.829-0.354-3.889-1.061-6.365-1.061-2.829-0.354-5.304-0.354-8.486-0.354-12.376-1.414-25.812-6.365-35.713-10.607-5.304-2.475-10.608-4.243-15.912-7.426-4.243-2.475-7.779-5.304-11.314-8.132-13.436-9.901-24.751-19.801-35.36-33.945-19.094-26.519-28.994-59.757-27.58-92.641 1.414-32.884 14.497-65.061 35.359-88.752-1.061 1.061 1.414-2.475 3.536-4.596 0 0.707-0.354 1.768 2.122-0.707 2.122-2.475-0.707-0.707 0.353-2.122 21.923-24.044 60.111-43.492 99.36-44.199 1.414-1.061 3.889-2.475 6.718-1.768 0 0.354-1.768 0.354-1.768 0.354 3.889-0.354 7.425-0.354 9.193 0.353 0.354-0.354-1.414-0.707 0-0.707 2.475 0.707 3.182 0 4.597 0.707-1.061 0-2.122 0-2.829 0.354 8.84 0 14.497 2.122 23.337 2.829-4.597-1.061-5.657-1.061-9.193-2.122 3.889 0.707 5.657 1.414 7.425 1.061-0.707 0-0.354-1.061 0.354-0.707 7.072 1.768 7.779 2.475 15.204 4.95 0.707-0.707-3.182-1.061-4.243-2.122 7.072 2.475 13.436 4.243 17.68 7.072-1.414-1.061-5.657-2.475-8.84-3.889-0.354 0.354 1.061 0.707 1.414 1.414-3.536-1.768-8.486-3.536-13.436-4.243 4.243 1.061 7.072 2.475 8.84 3.182-3.889-0.707-8.84-3.182-14.498-4.243 9.193 2.829 26.519 9.193 37.127 14.851-3.889-2.475-8.486-4.243-10.961-5.657 2.122 0.354 4.597 1.768 4.597 1.06 2.475 1.061 5.657 3.536 7.425 3.89-3.182-2.122-9.547-5.304-11.668-6.365 26.519 12.022 50.21 32.177 65.414 57.989 1.414 2.475 3.536 8.133 5.304 8.84-0.354-1.768-1.768-2.829-3.182-5.657 0.707 0 0.707-1.061 0-2.122-1.414-1.768 0 1.414-1.415-0.354-6.365-11.669-14.144-21.923-26.165-33.237 6.718 6.365 1.768 1.768 0.353-0.354 9.193 8.133 19.801 21.923 24.398 28.995-0.707-1.061-1.061-1.768-0.707-1.768 8.486 14.497 13.79 27.58 19.094 46.32 0.354 0.354 0-1.414 0.707-0.353 3.536 14.851 4.597 27.227 4.243 38.541 2.829-19.094-3.536-48.796-14.851-72.133-1.414-2.829-1.414-0.707-2.829-3.889 0-1.061-1.061-3.182-1.768-4.597-14.144-23.337-31.47-39.956-51.978-53.038 1.414 0.707 4.243 2.829 4.244 2.475-38.188-25.105-82.387-28.641-118.807-20.862-2.475 1.061-3.536 2.122-6.365 3.536 5.304-1.768 8.486-2.122 13.437-3.183 1.061-1.061-4.597 0.354-2.122-0.707 0.354 0.354 4.95-0.707 6.011-0.353 0 0.354-1.414 0.707-1.768 1.06 11.669-2.475 23.691-2.829 33.945-2.121-6.011 0.354-16.972-0.707-20.508 1.061 3.536-0.354 8.486-0.707 11.668-0.354-4.243 0-12.022 0.354-15.558 0.707-0.354-0.354 5.657-1.061 1.768-1.06-1.768 0.354-4.597 0.354-5.657 1.414-30.409 2.829-60.111 18.74-80.973 37.481-4.243 3.536-9.193 7.425-12.375 11.314-7.779 8.84-12.729 17.68-18.387 25.459 3.536-7.425 11.315-18.74 20.508-28.287 9.193-9.547 19.094-17.68 24.398-21.923 0 1.414 8.486-5.304 11.669-7.425-2.122 1.768 1.414-0.707 2.121-0.354 11.315-6.718 20.508-9.193 30.763-13.083-2.475 0.707-4.597 1.414-4.951 1.061 2.475-0.707 3.889-1.414 3.536-1.768-9.901 2.829-25.459 9.547-37.834 16.972 22.276-15.204 50.564-24.398 78.497-24.751 27.934-0.707 55.16 6.365 76.729 17.68 14.497 6.365 28.287 18.033 39.249 29.348 3.182 2.829 0.707-0.707 5.304 4.243-1.414-0.707-2.475-1.414-0.707 0.707 2.829 3.182-0.707-2.475 3.889 3.182-0.354 0-1.768-1.768-1.768-1.061 12.376 10.961 21.923 30.762 27.58 43.846-1.414-5.304-4.95-12.729-7.779-18.033 8.486 15.558 11.315 24.751 14.851 38.541 1.414 1.061-0.707-4.95 0.707-2.121 0.354 2.122 0.707 8.84 2.122 9.9-1.061-6.718-2.829-14.851-4.243-16.265 1.061 0.707-1.768-8.133-3.536-10.254-0.707-5.657-5.657-15.558-9.901-22.984-15.204-29.702-42.431-54.099-72.839-67.536 0-0.707-1.768-1.414-2.476-2.121-30.055-12.729-66.122-16.265-100.773-8.133-35.006 8.486-67.889 28.641-91.227 57.636 1.061-3.536 9.901-10.254 10.255-13.083-10.254 10.961-21.215 25.459-28.641 41.016-7.779 15.558-12.022 31.47-13.79 43.138" fill="#7fc37e" fill-rule="nonzero" stroke="none" stroke-width="1" stroke-linecap="butt" stroke-linejoin="miter" stroke-miterlimit="10" stroke-dasharray="" stroke-dashoffset="0" font-family="none" font-weight="none" font-size="none" text-anchor="none" style="mix-blend-mode: normal" data-fill-palette-color="tertiary"></path></g><g transform="matrix(1,0,0,1,55.15132870707376,90)"><svg viewBox="0 0 209.69734258585248 180" height="180" width="209.69734258585248"><g><svg viewBox="0 0 224 192.27711473497826" height="180" width="209.69734258585248"><g transform="matrix(1,0,0,1,0,116.5165642704132)"><svg viewBox="0 0 224 75.76055046456506" height="75.76055046456506" width="224"><g id="textblocktransform"><svg viewBox="0 0 224 75.76055046456506" height="75.76055046456506" width="224" id="textblock"><g><svg viewBox="0 0 224 50.04949053857351" height="50.04949053857351" width="224"><g transform="matrix(1,0,0,1,0,0)"><svg width="224" viewBox="1.7599999904632568 -29.540000915527344 134.1699981689453 29.98000144958496" height="50.04949053857351" data-palette-color="#7fc37e"><path d="M32.62 0L18.12 0 17.92-2.44 20.46-2.93Q20.17-3.47 19.85-3.93 19.53-4.39 18.85-5.27L18.85-5.27 12.79-12.6 10.89-12.6 10.89-14.94 12.94-15.33 23-25.68 19.87-26.22 20.02-28.66 31.1-28.66 31.25-26.12 28.03-25.63 17.29-16.02 17.14-18.16 26.56-6.88Q27.73-5.57 28.42-4.76 29.1-3.96 29.49-3.54 29.88-3.13 30.13-2.88L30.13-2.88 32.62-2.49 32.62 0ZM14.36 0L2 0 1.86-2.44 4.98-3.22Q5.08-3.56 5.13-5.62 5.18-7.67 5.18-10.74L5.18-10.74 5.18-17.87Q5.18-19.92 5.13-21.56 5.08-23.19 5-24.22 4.93-25.24 4.83-25.44L4.83-25.44 1.76-26.22 1.9-28.66 15.04-28.66 15.19-26.22 12.06-25.44Q11.96-25.2 11.89-24.15 11.82-23.1 11.79-21.48 11.77-19.87 11.77-17.87L11.77-17.87 11.77-10.74Q11.77-7.67 11.84-5.62 11.91-3.56 11.96-3.22L11.96-3.22 14.5-2.44 14.36 0ZM46.97 0L33.84 0 33.69-2.44 36.77-3.22Q36.86-3.47 36.94-4.49 37.01-5.52 37.06-7.15 37.11-8.79 37.11-10.74L37.11-10.74 37.11-17.87Q37.11-19.92 37.06-21.56 37.01-23.19 36.94-24.24 36.86-25.29 36.77-25.44L36.77-25.44 33.69-26.22 33.84-28.66 46.97-28.66 47.12-26.22 43.99-25.44Q43.89-25.24 43.82-24.19 43.75-23.14 43.72-21.51 43.7-19.87 43.7-17.87L43.7-17.87 43.7-10.74Q43.7-8.84 43.72-7.23 43.75-5.62 43.82-4.57 43.89-3.52 43.99-3.22L43.99-3.22 47.12-2.44 46.97 0ZM60.3 0.44L60.3 0.44Q58.2 0.44 55.73-0.15 53.27-0.73 51.51-1.71L51.51-1.71 51.26-8.94 54.39-9.13 56.05-4.1Q57.08-3.47 58.39-3.1 59.71-2.73 60.93-2.73L60.93-2.73Q63.13-2.73 64.28-3.66 65.42-4.59 65.42-6.15L65.42-6.15Q65.42-7.86 64.42-8.89 63.42-9.91 61.81-10.64 60.2-11.38 58.39-12.08 56.59-12.79 54.98-13.79 53.36-14.79 52.36-16.36 51.36-17.92 51.36-20.41L51.36-20.41Q51.36-23.05 52.85-25.02 54.34-27 57.05-28.1 59.76-29.2 63.33-29.2L63.33-29.2Q64.45-29.2 65.77-29.05 67.08-28.91 68.31-28.59 69.53-28.27 70.41-27.88L70.41-27.88 70.99-20.75 67.87-20.56 66.3-25.34Q64.79-26.12 62.84-26.12L62.84-26.12Q60.83-26.12 59.54-25.12 58.25-24.12 58.25-22.31L58.25-22.31Q58.25-20.7 59.27-19.65 60.3-18.6 61.93-17.85 63.57-17.09 65.4-16.36 67.23-15.63 68.84-14.62 70.45-13.62 71.48-12.11 72.5-10.6 72.5-8.25L72.5-8.25Q72.5-5.76 70.99-3.78 69.48-1.81 66.72-0.68 63.96 0.44 60.3 0.44ZM83.24 0L73.82 0 73.67-2.44 76.21-3.22 86.13-27.25 90.23-29.54 101.46-3.22 104-2.44 103.85 0 90.76 0 90.62-2.44 93.74-3.22 91.11-9.52 90.57-11.18 85.69-22.71 87.1-22.31 83.05-11.33 82.61-9.86 80.27-3.22 83.39-2.44 83.24 0ZM81.44-8.3L81.44-8.3 81.44-11.62Q82.41-11.57 83.64-11.5 84.86-11.43 86.91-11.43L86.91-11.43Q88.86-11.43 90.15-11.5 91.45-11.57 92.38-11.62L92.38-11.62 92.38-8.35Q91.45-8.35 90.13-8.4 88.81-8.45 86.91-8.45L86.91-8.45Q84.9-8.45 83.64-8.4 82.37-8.35 81.44-8.3ZM130.95-9.03L128.95-9.03 128.95-16.5Q128.95-18.9 128.92-20.83 128.9-22.75 128.82-23.97 128.75-25.2 128.65-25.44L128.65-25.44 125.23-26.22 125.38-28.66 135.78-28.66 135.93-26.22 132.8-25.44Q132.75-25.2 132.68-24 132.61-22.8 132.56-20.85 132.51-18.9 132.51-16.5L132.51-16.5 132.51-7.23Q132.51-4.93 132.51-3.2 132.51-1.46 132.51 0.24L132.51 0.24 129.53 0.24 109.9-22.46 112.49-22.46 112.49-12.74Q112.49-10.11 112.54-8.08 112.59-6.05 112.66-4.81 112.73-3.56 112.88-3.22L112.88-3.22 116.25-2.44 116.1 0 105.56 0 105.41-2.44 108.49-3.22Q108.58-3.56 108.66-4.86 108.73-6.15 108.78-8.23 108.83-10.3 108.83-12.74L108.83-12.74 108.83-19.24Q108.83-20.56 108.75-21.88 108.68-23.19 108.61-24.17 108.53-25.15 108.49-25.44L108.49-25.44 105.41-26.22 105.56-28.66 113.27-28.66 130.95-9.03Z" opacity="1" transform="matrix(1,0,0,1,0,0)" fill="#7fc37e" class="undefined-text-0" data-fill-palette-color="primary" id="text-0"></path></svg></g></svg></g><g transform="matrix(1,0,0,1,0,61.864974066957785)"><svg viewBox="0 0 224 13.895576397607266" height="13.895576397607266" width="224"><g transform="matrix(1,0,0,1,0,0)"><svg width="224" viewBox="2.8299999237060547 -40.5 661.1399536132812 41.0099983215332" height="13.895576397607266" data-palette-color="#7fc37e"><path d="M16.92 0L16.92-31.37 2.83-31.37 2.83-38.16 38.75-38.16 38.75-31.37 24.66-31.37 24.66 0 16.92 0ZM44.72-9.08L44.72-9.08Q44.72-11.16 45.63-12.87 46.53-14.58 48.34-15.81 50.14-17.04 52.84-17.71 55.54-18.38 59.13-18.38L59.13-18.38Q61.79-18.38 64.73-17.99 67.67-17.6 70.8-16.8L70.8-16.8Q70.68-18.16 69.97-19.32 69.26-20.48 68-21.33 66.75-22.17 64.98-22.63 63.21-23.1 60.96-23.1L60.96-23.1Q59.74-23.1 58.27-22.95 56.81-22.8 55.25-22.51 53.68-22.22 52.16-21.78 50.63-21.34 49.31-20.73L49.31-20.73 47.12-26.66Q48.75-27.25 50.62-27.73 52.49-28.22 54.44-28.58 56.39-28.93 58.35-29.13 60.3-29.32 62.13-29.32L62.13-29.32Q70.21-29.32 74.14-25.2 78.07-21.07 78.07-12.55L78.07-12.55 78.07 0 70.85 0 70.85-2.71Q69.72-2.05 68.39-1.46 67.06-0.88 65.5-0.44 63.94 0 62.14 0.26 60.35 0.51 58.35 0.51L58.35 0.51Q54.98 0.51 52.43-0.22 49.88-0.95 48.17-2.25 46.46-3.54 45.59-5.29 44.72-7.03 44.72-9.08ZM52.34-9.33L52.34-9.33Q52.34-8.62 52.71-7.97 53.07-7.32 53.88-6.82 54.69-6.32 55.94-6.02 57.2-5.71 58.98-5.71L58.98-5.71Q60.89-5.71 62.67-6.05 64.45-6.4 65.99-6.96 67.53-7.52 68.77-8.25 70.02-8.98 70.85-9.77L70.85-9.77 70.85-11.04Q69.19-11.5 67.56-11.82 65.94-12.13 64.46-12.32 62.99-12.5 61.68-12.57 60.37-12.65 59.4-12.65L59.4-12.65Q57.37-12.65 56.03-12.38 54.69-12.11 53.85-11.66 53.02-11.21 52.68-10.6 52.34-9.99 52.34-9.33ZM85.88-14.33L85.88-14.33Q85.88-17.5 87.04-20.25 88.2-23 90.44-25.01 92.67-27.03 95.91-28.17 99.14-29.32 103.29-29.32L103.29-29.32Q105.1-29.32 106.93-29.1 108.76-28.88 110.46-28.48 112.15-28.08 113.64-27.53 115.13-26.98 116.23-26.32L116.23-26.32 112.89-20.87Q110.52-21.97 108.41-22.49 106.29-23 104.12-23L104.12-23Q101.63-23 99.65-22.35 97.68-21.7 96.3-20.54 94.92-19.38 94.2-17.81 93.48-16.24 93.48-14.38L93.48-14.38Q93.48-12.52 94.25-10.95 95.01-9.38 96.42-8.24 97.82-7.1 99.81-6.46 101.8-5.81 104.24-5.81L104.24-5.81Q106.93-5.81 109.31-6.57 111.69-7.32 113.74-8.59L113.74-8.59 117.08-3.15Q115.79-2.37 114.28-1.7 112.76-1.03 111.04-0.54 109.32-0.05 107.43 0.23 105.54 0.51 103.51 0.51L103.51 0.51Q99.38 0.51 96.11-0.61 92.84-1.73 90.57-3.72 88.3-5.71 87.09-8.42 85.88-11.13 85.88-14.33ZM129.22 0L129.22-23.39 122.26-23.39 122.26-28.81 129.22-28.81 129.22-37.77 136.44-37.77 136.44-28.81 143.4-28.81 143.4-23.39 136.44-23.39 136.44 0 129.22 0ZM148.09-14.4L148.09-14.4Q148.09-17.5 149.34-20.21 150.6-22.92 152.93-24.95 155.26-26.98 158.57-28.15 161.88-29.32 166.01-29.32L166.01-29.32Q170.13-29.32 173.44-28.15 176.75-26.98 179.08-24.95 181.41-22.92 182.67-20.21 183.93-17.5 183.93-14.4L183.93-14.4Q183.93-11.3 182.67-8.59 181.41-5.88 179.08-3.86 176.75-1.83 173.44-0.66 170.13 0.51 166.01 0.51L166.01 0.51Q161.88 0.51 158.57-0.66 155.26-1.83 152.93-3.86 150.6-5.88 149.34-8.59 148.09-11.3 148.09-14.4ZM155.68-14.4L155.68-14.4Q155.68-12.67 156.37-11.12 157.07-9.57 158.4-8.39 159.73-7.2 161.65-6.51 163.56-5.81 166.01-5.81L166.01-5.81Q168.45-5.81 170.36-6.51 172.28-7.2 173.61-8.39 174.94-9.57 175.64-11.12 176.33-12.67 176.33-14.4L176.33-14.4Q176.33-16.14 175.64-17.7 174.94-19.26 173.61-20.45 172.28-21.63 170.36-22.33 168.45-23.02 166.01-23.02L166.01-23.02Q163.56-23.02 161.65-22.33 159.73-21.63 158.4-20.45 157.07-19.26 156.37-17.7 155.68-16.14 155.68-14.4ZM191.22 0L191.22-28.81 198.45-28.81 198.45-24.66Q200.84-26.44 203.5-27.73 206.16-29.03 208.8-29.71L208.8-29.71 210.93-23.1Q206.75-22.68 203.59-21.23 200.43-19.78 198.45-17.14L198.45-17.14 198.45 0 191.22 0ZM245.3 0L245.3-31.37 231.21-31.37 231.21-38.16 267.12-38.16 267.12-31.37 253.03-31.37 253.03 0 245.3 0ZM272.73-14.4L272.73-14.4Q272.73-17.5 273.99-20.21 275.25-22.92 277.58-24.95 279.91-26.98 283.22-28.15 286.53-29.32 290.65-29.32L290.65-29.32Q294.78-29.32 298.09-28.15 301.4-26.98 303.73-24.95 306.06-22.92 307.32-20.21 308.57-17.5 308.57-14.4L308.57-14.4Q308.57-11.3 307.32-8.59 306.06-5.88 303.73-3.86 301.4-1.83 298.09-0.66 294.78 0.51 290.65 0.51L290.65 0.51Q286.53 0.51 283.22-0.66 279.91-1.83 277.58-3.86 275.25-5.88 273.99-8.59 272.73-11.3 272.73-14.4ZM280.33-14.4L280.33-14.4Q280.33-12.67 281.02-11.12 281.72-9.57 283.05-8.39 284.38-7.2 286.3-6.51 288.21-5.81 290.65-5.81L290.65-5.81Q293.1-5.81 295.01-6.51 296.93-7.2 298.26-8.39 299.59-9.57 300.29-11.12 300.98-12.67 300.98-14.4L300.98-14.4Q300.98-16.14 300.29-17.7 299.59-19.26 298.26-20.45 296.93-21.63 295.01-22.33 293.1-23.02 290.65-23.02L290.65-23.02Q288.21-23.02 286.3-22.33 284.38-21.63 283.05-20.45 281.72-19.26 281.02-17.7 280.33-16.14 280.33-14.4ZM328.47 0L346.39-38.16 354.59-38.16 373.05 0 364.92 0 361.86-6.42 339.57-6.42 336.62 0 328.47 0ZM342.53-12.79L358.81-12.79 350.56-30.13 342.53-12.79ZM378.27 0L378.27-40.5 385.49-40.5 385.49 0 378.27 0ZM394.94 0L394.94-40.5 402.17-40.5 402.17 0 394.94 0ZM428.92 0L428.92-38.16 463.05-38.16 463.05-31.37 436.66-31.37 436.66-21.39 459.07-21.39 459.07-15.01 436.66-15.01 436.66 0 428.92 0ZM468.25-9.08L468.25-9.08Q468.25-11.16 469.15-12.87 470.06-14.58 471.86-15.81 473.67-17.04 476.37-17.71 479.06-18.38 482.65-18.38L482.65-18.38Q485.31-18.38 488.26-17.99 491.2-17.6 494.32-16.8L494.32-16.8Q494.2-18.16 493.49-19.32 492.78-20.48 491.53-21.33 490.27-22.17 488.5-22.63 486.73-23.1 484.48-23.1L484.48-23.1Q483.26-23.1 481.8-22.95 480.33-22.8 478.77-22.51 477.21-22.22 475.68-21.78 474.16-21.34 472.84-20.73L472.84-20.73 470.64-26.66Q472.28-27.25 474.14-27.73 476.01-28.22 477.97-28.58 479.92-28.93 481.87-29.13 483.82-29.32 485.66-29.32L485.66-29.32Q493.74-29.32 497.67-25.2 501.6-21.07 501.6-12.55L501.6-12.55 501.6 0 494.37 0 494.37-2.71Q493.25-2.05 491.92-1.46 490.59-0.88 489.03-0.44 487.46 0 485.67 0.26 483.87 0.51 481.87 0.51L481.87 0.51Q478.5 0.51 475.95-0.22 473.4-0.95 471.69-2.25 469.98-3.54 469.12-5.29 468.25-7.03 468.25-9.08ZM475.87-9.33L475.87-9.33Q475.87-8.62 476.23-7.97 476.6-7.32 477.4-6.82 478.21-6.32 479.47-6.02 480.72-5.71 482.51-5.71L482.51-5.71Q484.41-5.71 486.19-6.05 487.98-6.4 489.51-6.96 491.05-7.52 492.3-8.25 493.54-8.98 494.37-9.77L494.37-9.77 494.37-11.04Q492.71-11.5 491.09-11.82 489.46-12.13 487.99-12.32 486.51-12.5 485.2-12.57 483.9-12.65 482.92-12.65L482.92-12.65Q480.9-12.65 479.55-12.38 478.21-12.11 477.38-11.66 476.55-11.21 476.21-10.6 475.87-9.99 475.87-9.33ZM511.14 0L511.14-28.81 518.37-28.81 518.37-24.66Q520.76-26.44 523.42-27.73 526.08-29.03 528.72-29.71L528.72-29.71 530.84-23.1Q526.67-22.68 523.51-21.23 520.35-19.78 518.37-17.14L518.37-17.14 518.37 0 511.14 0ZM536.41 0L536.41-28.81 543.63-28.81 543.63-26.37Q546.34-28.03 548.92-28.67 551.5-29.32 553.96-29.32L553.96-29.32Q557.4-29.32 560.28-28.22 563.17-27.12 565.22-24.9L565.22-24.9Q566.8-26.12 568.34-26.97 569.88-27.81 571.42-28.33 572.96-28.86 574.54-29.09 576.13-29.32 577.81-29.32L577.81-29.32Q581.35-29.32 584.23-28.36 587.12-27.39 589.15-25.49 591.19-23.58 592.3-20.74 593.41-17.9 593.41-14.16L593.41-14.16 593.41 0 586.21 0 586.21-12.99Q586.21-15.36 585.54-17.22 584.87-19.09 583.66-20.37 582.45-21.66 580.78-22.33 579.11-23 577.11-23L577.11-23Q576.01-23 574.86-22.79 573.71-22.58 572.63-22.14 571.54-21.7 570.59-21.03 569.64-20.36 568.93-19.46L568.93-19.46 568.93 0 561.73 0 561.73-12.99Q561.73-15.36 561.05-17.22 560.38-19.09 559.17-20.37 557.97-21.66 556.27-22.33 554.57-23 552.55-23L552.55-23Q551.3-23 550.04-22.74 548.79-22.49 547.63-22.02 546.47-21.56 545.45-20.9 544.44-20.24 543.63-19.41L543.63-19.41 543.63 0 536.41 0ZM601.13-14.5L601.13-14.5Q601.13-17.43 602.32-20.1 603.52-22.78 605.77-24.83 608.01-26.88 611.27-28.1 614.53-29.32 618.68-29.32L618.68-29.32Q622.81-29.32 626.11-28.09 629.42-26.86 631.73-24.71 634.04-22.56 635.27-19.65 636.5-16.75 636.5-13.43L636.5-13.43Q636.5-13.01 636.49-12.54 636.48-12.06 636.43-11.67L636.43-11.67 609.18-11.67Q609.65-10.38 610.68-9.3 611.72-8.23 613.29-7.45 614.85-6.67 616.9-6.24 618.95-5.81 621.44-5.81L621.44-5.81Q623.93-5.81 626.4-6.34 628.86-6.86 631.11-7.67L631.11-7.67 633.55-2.15Q632.13-1.49 630.68-0.99 629.23-0.49 627.65-0.16 626.08 0.17 624.36 0.34 622.64 0.51 620.73 0.51L620.73 0.51Q615.87 0.51 612.21-0.66 608.55-1.83 606.08-3.86 603.62-5.88 602.37-8.62 601.13-11.35 601.13-14.5ZM609.18-17.31L628.84-17.31Q628.45-18.51 627.63-19.54 626.81-20.58 625.59-21.35 624.37-22.12 622.76-22.56 621.15-23 619.22-23L619.22-23Q617.17-23 615.48-22.53 613.8-22.07 612.53-21.29 611.26-20.51 610.42-19.48 609.57-18.46 609.18-17.31L609.18-17.31ZM644.26 0L644.26-28.81 651.49-28.81 651.49-24.66Q653.88-26.44 656.54-27.73 659.21-29.03 661.84-29.71L661.84-29.71 663.97-23.1Q659.79-22.68 656.63-21.23 653.47-19.78 651.49-17.14L651.49-17.14 651.49 0 644.26 0Z" opacity="1" transform="matrix(1,0,0,1,0,0)" fill="#7fc37e" class="undefined-text-1" data-fill-palette-color="secondary" id="text-1"></path></svg></g></svg></g></svg></g></svg></g><g transform="matrix(1,0,0,1,53.78322570477448,0)"><svg viewBox="0 0 116.43354859045104 104.70108074202892" height="104.70108074202892" width="116.43354859045104"><g><svg xmlns="http://www.w3.org/2000/svg" xmlns:xlink="http://www.w3.org/1999/xlink" version="1.1" x="8" y="0" viewBox="0 0.10499954223632812 48.245018005371094 50.29500198364258" enable-background="new 0 0 50.4 50.4" xml:space="preserve" width="100.43354859045104" height="104.70108074202892" class="icon-icon-0" data-fill-palette-color="accent" id="icon-0"><g fill="#fefee2" data-fill-palette-color="accent"><path d="M24.895 12.414c0.07 3.256 2.715 5.876 5.988 5.876 3.27 0 5.919-2.62 5.987-5.876H24.895z" fill="#fefee2" data-fill-palette-color="accent"></path></g><path d="M36.83 9.157l0.024-3.318c-0.145-3.187-2.749-5.734-5.972-5.734-3.222 0-5.829 2.547-5.972 5.734l-0.003 3.318h-5.45v1.902h22.822V9.157H36.83z" fill="#fefee2" data-fill-palette-color="accent"></path><path d="M38.789 19.348l-15.076-0.007c-5.161 0-9.203 4.238-9.203 9.647v8.959H10.31V21.671h3.198c1.426 0 2.586-1.159 2.586-2.584V6.181h-1.814v12.905c0 0.425-0.346 0.771-0.772 0.771h-3.299V6.181H8.395v13.676H5.064c-0.426 0-0.772-0.346-0.772-0.771V6.181H2.478v12.905c0 1.425 1.16 2.584 2.587 2.584h3.229v16.276H3.826C1.314 37.947 0 39.746 0 41.521c0 1.776 1.314 3.573 3.826 3.573h4.468V50.4h2.016v-5.307h7.758l0.832-0.064c0.672-0.145 1.207-0.523 1.643-0.958 0.349-0.347 0.745-0.887 0.958-1.679l-0.001 8.005h19.825l0.001-1.714c0.31 0.5 0.735 0.915 1.257 1.217 0.58 0.333 1.244 0.5 1.908 0.5 0.666 0 1.331-0.168 1.911-0.506 1.176-0.681 1.847-1.937 1.843-3.445V29.112C48.244 24.313 44.708 19.348 38.789 19.348zM25.165 36.032h-1.821l0.002-7.413h-3.532v12.529c0 0.687-0.197 1.246-0.57 1.616-0.308 0.306-0.762 0.46-1.17 0.471l-7.764 0.008V39.79h6.043V28.988c0-4.45 3.165-7.806 7.36-7.806l1.452 0V36.032zM34.617 26.241h-6.37v-5.057l6.37 0.004V26.241zM46.401 46.451c0.002 1.085-0.501 1.605-0.924 1.851-0.598 0.347-1.375 0.348-1.975 0.001-0.427-0.244-0.936-0.766-0.936-1.854v-17.83h-3.078l-0.003 7.413h-1.787V21.19l1.09 0c4.764 0 7.612 4.028 7.612 7.922V46.451z" fill="#fefee2" data-fill-palette-color="accent"></path></svg></g></svg></g><g><rect width="46.63189699770072" height="4.513514707842796" y="99.18756603418612" x="170.21677429522552" fill="#fefee2" data-fill-palette-color="accent"></rect><rect width="46.63189699770072" height="4.513514707842796" y="99.18756603418612" x="7.151328707073759" fill="#fefee2" data-fill-palette-color="accent"></rect><rect width="46.63189699770072" height="4.513514707842796" y="90.16053661850053" x="170.21677429522552" fill="#fefee2" data-fill-palette-color="accent"></rect><rect width="46.63189699770072" height="4.513514707842796" y="90.16053661850053" x="7.151328707073759" fill="#fefee2" data-fill-palette-color="accent"></rect></g></svg></g></svg></g></svg></g><defs></defs></svg><rect width="320" height="360" fill="none" stroke="none" visibility="hidden"></rect></g></svg></g></svg>